<svg xmlns="http://www.w3.org/2000/svg" xmlns:xlink="http://www.w3.org/1999/xlink" viewBox="0 0 280 72"><defs><style>.cls-1,.cls-2{fill-rule:evenodd;}.cls-2{stroke-width:3px;fill:url(#linear-gradient);stroke:url(#linear-gradient-2);}.cls-3{isolation:isolate;}.cls-4{fill:#052011;}.cls-5{fill:#fff;}.cls-6{fill:url(#linear-gradient-3);}</style><linearGradient id="linear-gradient" x1="-854.41" y1="1027.1" x2="-854.41" y2="1026.1" gradientTransform="matrix(277, 0, 0, -69, 236812.5, 70871.5)" gradientUnits="userSpaceOnUse"><stop offset="0" stop-color="#ffde00"/><stop offset="1" stop-color="#ff8700"/></linearGradient><linearGradient id="linear-gradient-2" x1="-854.41" y1="1027.1" x2="-854.41" y2="1026.1" gradientTransform="matrix(277, 0, 0, -69, 236812.5, 70871.5)" gradientUnits="userSpaceOnUse"><stop offset="0" stop-color="#ffe100"/><stop offset="1" stop-color="#ffa324"/></linearGradient><linearGradient id="linear-gradient-3" x1="-23.56" y1="58.87" x2="-23.56" y2="59.52" gradientTransform="translate(1216.03 -2508) scale(50 43)" xlink:href="#linear-gradient"/></defs><g id="Layer_2" data-name="Layer 2"><g id="Layer_1-2" data-name="Layer 1"><path id="azjgzljsmb" class="cls-1" d="M36,0H244a36,36,0,0,1,36,36h0a36,36,0,0,1-36,36H36A36,36,0,0,1,0,36H0A36,36,0,0,1,36,0Z"/><path class="cls-2" d="M36,1.5H244A34.5,34.5,0,0,1,278.5,36h0A34.5,34.5,0,0,1,244,70.5H36A34.5,34.5,0,0,1,1.5,36h0A34.5,34.5,0,0,1,36,1.5Z"/><g class="cls-3"><path class="cls-4" d="M93.19,49.1V25.28H103.7c4.48,0,7.27,2.29,7.27,5.93a5.29,5.29,0,0,1-4.47,5.2v.11a5.75,5.75,0,0,1,5.59,5.76c0,4.19-3.13,6.82-8.22,6.82Zm5-13.92H102c2.69,0,4.19-1.18,4.19-3.19s-1.34-3-3.69-3H98.22v6.21Zm4.42,10.23c2.85,0,4.42-1.23,4.42-3.52s-1.62-3.41-4.53-3.41H98.22v6.93Z"/><path class="cls-4" d="M133.06,49.1h-4.64V45.8h-.11a5.42,5.42,0,0,1-5.48,3.58c-3.91,0-6.54-2.57-6.54-6.77V30.93h4.81V41.61c0,2.46,1.23,3.8,3.46,3.8s3.64-1.62,3.64-4.08V30.93H133V49.1Z"/><path class="cls-4" d="M138.49,55.7V52a6.65,6.65,0,0,0,1.12.06c1.79,0,2.85-.62,3.24-2.07l.17-.67L136.64,31H142l3.92,14.26H146L150,31H155l-6.32,18.57c-1.56,4.64-3.8,6.26-8.33,6.26C140.17,55.76,138.66,55.7,138.49,55.7Z"/><path class="cls-4" d="M167.79,49.1V25.28h4.14l11.18,15.54h.12V25.28H188V49.1h-4.14L172.66,33.5h-.17V49.1Z"/><path class="cls-4" d="M192.68,40c0-5.82,3.52-9.4,8.94-9.4s8.95,3.58,8.95,9.4-3.47,9.39-8.95,9.39S192.68,45.91,192.68,40Zm13,0c0-3.58-1.51-5.71-4.09-5.71s-4.08,2.13-4.08,5.71,1.51,5.7,4.08,5.7S205.71,43.62,205.71,40Z"/><path class="cls-4" d="M235.23,49.1h-5.14l-3.36-13h-.11l-3.3,13h-5.09l-4.86-18.17h4.86L221,44.52h.11l3.3-13.59h4.64l3.3,13.59h.11l2.85-13.59h4.76Z"/></g><circle class="cls-4" cx="36.77" cy="37" r="27.07"/><path id="_56p9a39d5e" data-name="56p9a39d5e" class="cls-5" d="M45.15,43.12H26.65a.9.9,0,0,1-.91-.71L22,29.72a1.31,1.31,0,0,1,.12-.84.94.94,0,0,1,.78-.39h24.3l1.29-4.32a.9.9,0,0,1,.9-.71h3.8a1,1,0,0,1,0,1.94H50.11l-1.29,4.32v.06L45.4,41.25a3.74,3.74,0,0,1-.25,7.48h-1a3.4,3.4,0,0,1-3.29,2.45,3.47,3.47,0,0,1-3.29-2.45H32.51a3.4,3.4,0,0,1-3.29,2.45,3.46,3.46,0,0,1-3.28-2.45H24.71a1,1,0,0,1,0-1.93h1.23a3.66,3.66,0,0,1,3.35-2.52,3.46,3.46,0,0,1,3.29,2.45h5.09A3.4,3.4,0,0,1,41,44.28a3.46,3.46,0,0,1,3.28,2.45h.91a1.8,1.8,0,0,0,1.8-1.8A1.76,1.76,0,0,0,45.15,43.12Zm-14-12.69h-7l1.29,4.44h5.67V30.43Zm0,6.31H26.07l1.29,4.45h3.8V36.74Zm7.09-6.31H33.09v4.44h5.16Zm0,6.31H33.09v4.45h5.16Zm1.87,4.45H43.4l1.29-4.45H40.05C40.12,36.74,40.12,41.19,40.12,41.19Zm6.51-10.76H40.12v4.44h5.15l1.36-4.44ZM29.29,46.22a1.48,1.48,0,1,0,1.48,1.48A1.5,1.5,0,0,0,29.29,46.22Zm11.67,0a1.48,1.48,0,1,0,1.48,1.48A1.5,1.5,0,0,0,41,46.22Z"/><path id="_56p9a39d5e-2" data-name="56p9a39d5e" class="cls-6" d="M45.15,43.12H26.65a.9.9,0,0,1-.91-.71L22,29.72a1.31,1.31,0,0,1,.12-.84.94.94,0,0,1,.78-.39h24.3l1.29-4.32a.9.9,0,0,1,.9-.71h3.8a1,1,0,0,1,0,1.94H50.11l-1.29,4.32v.06L45.4,41.25a3.74,3.74,0,0,1-.25,7.48h-1a3.4,3.4,0,0,1-3.29,2.45,3.47,3.47,0,0,1-3.29-2.45H32.51a3.4,3.4,0,0,1-3.29,2.45,3.46,3.46,0,0,1-3.28-2.45H24.71a1,1,0,0,1,0-1.93h1.23a3.66,3.66,0,0,1,3.35-2.52,3.46,3.46,0,0,1,3.29,2.45h5.09A3.4,3.4,0,0,1,41,44.28a3.46,3.46,0,0,1,3.28,2.45h.91a1.8,1.8,0,0,0,1.8-1.8A1.76,1.76,0,0,0,45.15,43.12Zm-14-12.69h-7l1.29,4.44h5.67V30.43Zm0,6.31H26.07l1.29,4.45h3.8V36.74Zm7.09-6.31H33.09v4.44h5.16Zm0,6.31H33.09v4.45h5.16Zm1.87,4.45H43.4l1.29-4.45H40.05C40.12,36.74,40.12,41.19,40.12,41.19Zm6.51-10.76H40.12v4.44h5.15l1.36-4.44ZM29.29,46.22a1.48,1.48,0,1,0,1.48,1.48A1.5,1.5,0,0,0,29.29,46.22Zm11.67,0a1.48,1.48,0,1,0,1.48,1.48A1.5,1.5,0,0,0,41,46.22Z"/></g></g></svg>