<svg width="14" height="14" viewBox="0 0 14 14" fill="none" xmlns="http://www.w3.org/2000/svg">
<mask id="path-1-inside-1_0_546" fill="white">
<path d="M6.15076 1.36588C6.54204 0.736561 7.45796 0.73656 7.84924 1.36587L9.46559 3.96555C9.60326 4.18697 9.82196 4.34586 10.0751 4.40837L13.047 5.14227C13.7664 5.31993 14.0495 6.19102 13.5719 6.75761L11.5989 9.0982C11.4309 9.29755 11.3473 9.55465 11.3661 9.8147L11.5865 12.868C11.6398 13.6071 10.8988 14.1454 10.2124 13.8663L7.37669 12.7132C7.13517 12.615 6.86484 12.615 6.62331 12.7132L3.78761 13.8663C3.10115 14.1454 2.36016 13.6071 2.41351 12.868L2.63391 9.8147C2.65268 9.55465 2.56914 9.29755 2.4011 9.0982L0.428144 6.75761C-0.0494583 6.19102 0.233575 5.31993 0.953 5.14227L3.92492 4.40837C4.17804 4.34586 4.39674 4.18697 4.53441 3.96555L6.15076 1.36588Z"/>
</mask>
<path d="M6.15076 1.36588C6.54204 0.736561 7.45796 0.73656 7.84924 1.36587L9.46559 3.96555C9.60326 4.18697 9.82196 4.34586 10.0751 4.40837L13.047 5.14227C13.7664 5.31993 14.0495 6.19102 13.5719 6.75761L11.5989 9.0982C11.4309 9.29755 11.3473 9.55465 11.3661 9.8147L11.5865 12.868C11.6398 13.6071 10.8988 14.1454 10.2124 13.8663L7.37669 12.7132C7.13517 12.615 6.86484 12.615 6.62331 12.7132L3.78761 13.8663C3.10115 14.1454 2.36016 13.6071 2.41351 12.868L2.63391 9.8147C2.65268 9.55465 2.56914 9.29755 2.4011 9.0982L0.428144 6.75761C-0.0494583 6.19102 0.233575 5.31993 0.953 5.14227L3.92492 4.40837C4.17804 4.34586 4.39674 4.18697 4.53441 3.96555L6.15076 1.36588Z" fill="#FEFDFD"/>
<path d="M3.92492 4.40837L3.68517 3.43754L3.92492 4.40837ZM4.53441 3.96555L3.68518 3.43754L4.53441 3.96555ZM0.953 5.14227L0.713257 4.17143L0.953 5.14227ZM2.63391 9.8147L1.6365 9.74271L2.63391 9.8147ZM2.4011 9.0982L1.6365 9.74271L2.4011 9.0982ZM7.37669 12.7132L7 13.6395L7.37669 12.7132ZM6.62331 12.7132L7 13.6395L6.62331 12.7132ZM11.5865 12.868L10.5891 12.9399L11.5865 12.868ZM11.5989 9.0982L12.3635 9.74271L11.5989 9.0982ZM13.5719 6.75761L12.8073 6.11311L13.5719 6.75761ZM9.46559 3.96555L8.61635 4.49356L9.46559 3.96555ZM10.0751 4.40837L9.83534 5.37921L10.0751 4.40837ZM7.84924 1.36587L7 1.89389L7.84924 1.36587ZM7 1.89389L8.61635 4.49356L10.3148 3.43753L8.69847 0.837861L7 1.89389ZM9.83534 5.37921L12.8073 6.11311L13.2867 4.17143L10.3148 3.43754L9.83534 5.37921ZM12.8073 6.11311L10.8343 8.4537L12.3635 9.74271L14.3365 7.40212L12.8073 6.11311ZM10.3687 9.8867L10.5891 12.9399L12.5839 12.796L12.3635 9.74271L10.3687 9.8867ZM10.5891 12.9399L7.75338 11.7868L7 13.6395L9.83571 14.7926L10.5891 12.9399ZM6.24663 11.7868L3.41092 12.9399L4.16429 14.7926L7 13.6395L6.24663 11.7868ZM3.41092 12.9399L3.63131 9.8867L1.6365 9.74271L1.41611 12.796L3.41092 12.9399ZM3.1657 8.4537L1.19274 6.11311L-0.336456 7.40212L1.6365 9.74271L3.1657 8.4537ZM1.19274 6.11311L4.16466 5.37921L3.68517 3.43754L0.713257 4.17143L1.19274 6.11311ZM5.38365 4.49356L7 1.89389L5.30153 0.837861L3.68518 3.43754L5.38365 4.49356ZM4.16466 5.37921C4.67091 5.25419 5.10831 4.9364 5.38365 4.49356L3.68518 3.43754H3.68517L4.16466 5.37921ZM1.19274 6.11311L1.19274 6.11311L0.713257 4.17143C-0.725594 4.52675 -1.29166 6.26893 -0.336456 7.40212L1.19274 6.11311ZM3.63131 9.8867C3.66885 9.3666 3.50178 8.8524 3.1657 8.4537L1.6365 9.74271L1.6365 9.74271L3.63131 9.8867ZM3.41092 12.9399H3.41092L1.41611 12.796C1.30941 14.2742 2.79139 15.3509 4.16429 14.7926L3.41092 12.9399ZM7.75338 11.7868C7.27033 11.5904 6.72967 11.5904 6.24663 11.7868L7 13.6395L7.75338 11.7868ZM10.5891 12.9399V12.9399L9.83571 14.7926C11.2086 15.3509 12.6906 14.2742 12.5839 12.796L10.5891 12.9399ZM10.8343 8.4537C10.4982 8.8524 10.3311 9.3666 10.3687 9.8867L12.3635 9.74271H12.3635L10.8343 8.4537ZM12.8073 6.11311L14.3365 7.40212C15.2917 6.26893 14.7256 4.52675 13.2867 4.17143L12.8073 6.11311ZM8.61635 4.49356C8.89169 4.9364 9.32909 5.25419 9.83534 5.37921L10.3148 3.43754L10.3148 3.43753L8.61635 4.49356ZM8.69847 0.837861C7.91592 -0.420769 6.08408 -0.420767 5.30153 0.837861L7 1.89389L7 1.89389L8.69847 0.837861Z" fill="#FFBB0E" mask="url(#path-1-inside-1_0_546)"/>
</svg>
