<svg width="32" height="32" viewBox="0 0 32 32" fill="none" xmlns="http://www.w3.org/2000/svg">
<circle cx="15.5941" cy="15.5941" r="15.5941" fill="#FA5C98"/>
<path d="M20.3606 19.8665C20.0901 19.1878 19.6975 18.5713 19.2048 18.0514C18.7136 17.53 18.1316 17.1143 17.4912 16.8272C17.4854 16.8242 17.4797 16.8227 17.474 16.8196C18.3673 16.1362 18.9481 15.0228 18.9481 13.7668C18.9481 11.6859 17.3564 10 15.3918 10C13.4273 10 11.8355 11.6859 11.8355 13.7668C11.8355 15.0228 12.4163 16.1362 13.3097 16.8212C13.3039 16.8242 13.2982 16.8257 13.2925 16.8288C12.65 17.1158 12.0736 17.5274 11.5789 18.053C11.0866 18.5733 10.6941 19.1896 10.4231 19.868C10.1568 20.5321 10.0132 21.2441 10 21.9655C9.99965 21.9817 10.0023 21.9979 10.0079 22.0129C10.0135 22.028 10.0219 22.0418 10.0326 22.0534C10.0433 22.065 10.0561 22.0742 10.0702 22.0805C10.0843 22.0868 10.0994 22.0901 10.1148 22.0901H10.9751C11.0382 22.0901 11.0884 22.0369 11.0899 21.9716C11.1185 20.799 11.5631 19.7009 12.3489 18.8686C13.162 18.0074 14.2418 17.5335 15.3918 17.5335C16.5419 17.5335 17.6217 18.0074 18.4347 18.8686C19.2206 19.7009 19.6651 20.799 19.6938 21.9716C19.6952 22.0384 19.7454 22.0901 19.8085 22.0901H20.6689C20.6842 22.0901 20.6994 22.0868 20.7135 22.0805C20.7276 22.0742 20.7404 22.065 20.751 22.0534C20.7617 22.0418 20.7701 22.028 20.7757 22.0129C20.7813 21.9979 20.784 21.9817 20.7836 21.9655C20.7693 21.2395 20.6273 20.5332 20.3606 19.8665ZM15.3918 16.3792C14.7336 16.3792 14.1141 16.1073 13.6481 15.6137C13.1821 15.12 12.9254 14.4639 12.9254 13.7668C12.9254 13.0696 13.1821 12.4135 13.6481 11.9198C14.1141 11.4262 14.7336 11.1543 15.3918 11.1543C16.05 11.1543 16.6695 11.4262 17.1356 11.9198C17.6016 12.4135 17.8583 13.0696 17.8583 13.7668C17.8583 14.4639 17.6016 15.12 17.1356 15.6137C16.6695 16.1073 16.05 16.3792 15.3918 16.3792Z" fill="white"/>
</svg>
